<svg width="28" height="28" viewBox="0 0 28 28" fill="none" xmlns="http://www.w3.org/2000/svg">
<path fill-rule="evenodd" clip-rule="evenodd" d="M28 14C28 21.7322 21.7322 28 14 28C6.2678 28 0 21.7322 0 14C0 6.2678 6.2678 0 14 0C21.7322 0 28 6.2678 28 14Z" fill="#FF6154"/>
<path fill-rule="evenodd" clip-rule="evenodd" d="M15.8665 14H11.8996V9.8H15.8665C16.4235 9.8 16.9576 10.0212 17.3514 10.4151C17.7453 10.8089 17.9665 11.343 17.9665 11.9C17.9665 12.457 17.7453 12.9911 17.3514 13.3849C16.9576 13.7788 16.4235 14 15.8665 14ZM15.8665 7H9.09961V21H11.8996V16.8H15.8665C17.1661 16.8 18.4124 16.2838 19.3313 15.3648C20.2503 14.4459 20.7665 13.1996 20.7665 11.9C20.7665 10.6004 20.2503 9.35411 19.3313 8.43518C18.4124 7.51625 17.1661 7 15.8665 7Z" fill="white"/>
</svg>
